<svg width="315" height="128" version="1.0" xmlns="http://www.w3.org/2000/svg" xmlns:xlink="http://www.w3.org/1999/xlink">
	<defs>
		<linearGradient id="linearGradient22783">
			<stop offset="0"/>
			<stop stop-color="#fff" offset="1"/>
		</linearGradient>
		<linearGradient id="linearGradient9111">
			<stop stop-color="#fff" offset="0"/>
			<stop stop-color="#fff" stop-opacity="0" offset="1"/>
		</linearGradient>
		<linearGradient id="linearGradient5537">
			<stop stop-color="#73a0d0" offset="0"/>
			<stop stop-color="#fff" offset="1"/>
		</linearGradient>
		<linearGradient id="linearGradient12684">
			<stop stop-color="#fff" offset="0"/>
			<stop stop-color="#fff" stop-opacity=".84536" offset=".35"/>
			<stop stop-color="#fff" stop-opacity="0" offset="1"/>
		</linearGradient>
		<linearGradient id="linearGradient6348">
			<stop stop-color="#fff" stop-opacity=".70103" offset="0"/>
			<stop stop-color="#13059a" stop-opacity="0" offset=".8"/>
			<stop stop-color="#4434e2" offset="1"/>
		</linearGradient>
		<linearGradient id="linearGradient3645">
			<stop stop-color="#4434e2" offset="0"/>
			<stop stop-color="#13059a" offset="1"/>
		</linearGradient>
		<linearGradient id="linearGradient3039" x1="60.812" x2="428.63" y1="222.16" y2="222.16" gradientUnits="userSpaceOnUse" xlink:href="#linearGradient3645"/>
		<radialGradient id="radialGradient3041" cx="244.72" cy="222.16" r="183.91" gradientUnits="userSpaceOnUse" xlink:href="#linearGradient6348"/>
		<radialGradient id="radialGradient3043" cx="49.71" cy="222.16" r="183.91" gradientTransform="matrix(1.3539 0 0 1.3539 -33.889 -78.631)" gradientUnits="userSpaceOnUse" xlink:href="#linearGradient9111"/>
		<radialGradient id="radialGradient3045" cx="69.945" cy="222.16" r="183.91" gradientTransform="matrix(1.3539 0 0 1.3539 -33.889 -78.631)" gradientUnits="userSpaceOnUse" xlink:href="#linearGradient9111"/>
		<linearGradient id="linearGradient3047" x1="98" x2="420" y1="240.92" y2="240.92" gradientTransform="matrix(.54348 -.94133 .94133 .54348 -156.67 314.83)" gradientUnits="userSpaceOnUse" xlink:href="#linearGradient9111"/>
		<linearGradient id="linearGradient3049" x1="98" x2="420" y1="240.92" y2="240.92" gradientTransform="matrix(-.94133 .54348 .54348 .94133 334.23 -173.07)" gradientUnits="userSpaceOnUse" xlink:href="#linearGradient9111"/>
		<linearGradient id="linearGradient3051" x1="98" x2="420" y1="240.92" y2="240.92" gradientTransform="matrix(.94133 -.54348 -.54348 -.94133 150.77 625.27)" gradientUnits="userSpaceOnUse" xlink:href="#linearGradient9111"/>
		<linearGradient id="linearGradient3053" x1="98" x2="420" y1="240.92" y2="240.92" gradientTransform="matrix(-.54348 .94133 -.94133 -.54348 641.67 131.38)" gradientUnits="userSpaceOnUse" xlink:href="#linearGradient9111"/>
		<radialGradient id="radialGradient3055" cx="246.35" cy="226.88" r="154.36" gradientTransform="matrix(1 -.57734 .12401 .2148 -28.136 320.38)" gradientUnits="userSpaceOnUse" xlink:href="#linearGradient9111"/>
		<radialGradient id="radialGradient3057" cx="246.35" cy="226.88" r="154.36" gradientTransform="matrix(-.57734 -1 .2148 -.12401 339.85 501.37)" gradientUnits="userSpaceOnUse" xlink:href="#linearGradient9111"/>
		<radialGradient id="radialGradient3059" cx="156.5" cy="148.5" r="19.5" gradientUnits="userSpaceOnUse" xlink:href="#linearGradient12684"/>
		<radialGradient id="radialGradient3085" cx="167.69" cy="141.67" r="21.773" gradientTransform="matrix(.84108 -.22537 .39929 .88006 126.73 -47.325)" gradientUnits="userSpaceOnUse" xlink:href="#linearGradient5537"/>
		<radialGradient id="radialGradient3087" cx="167.69" cy="141.67" r="21.773" gradientTransform="matrix(-.84108 -.22537 -.39929 .88006 610.64 -47.325)" gradientUnits="userSpaceOnUse" xlink:href="#linearGradient5537"/>
		<linearGradient id="linearGradient3089" x1="185.18" x2="185.18" y1="178.87" y2="162.24" gradientUnits="userSpaceOnUse" xlink:href="#linearGradient9111"/>
		<radialGradient id="radialGradient3091" cx="185.18" cy="162.24" r="8.3117" gradientTransform="matrix(1.7659 0 0 3.0048 -141.84 -325.26)" gradientUnits="userSpaceOnUse" xlink:href="#linearGradient9111"/>
		<radialGradient id="radialGradient3097" cx="221.8" cy="186.6" r="66.984" gradientTransform="matrix(6.9111e-7 .58309 -.71474 -5.1621e-7 500.05 -45.383)" gradientUnits="userSpaceOnUse" xlink:href="#linearGradient5537"/>
		<radialGradient id="radialGradient3099" cx="221.52" cy="231.32" r="13.714" gradientTransform="matrix(.77985 1.9507e-7 -8.1441e-8 .51201 193.71 -7.8754)" gradientUnits="userSpaceOnUse">
			<stop stop-color="#fff" offset="0"/>
			<stop stop-color="#fff" stop-opacity="0" offset="1"/>
		</radialGradient>
		<radialGradient id="radialGradient3101" cx="231.54" cy="137.96" r="22.608" gradientTransform="matrix(.61647 .47764 -.8716 1.1249 352.19 -230.38)" gradientUnits="userSpaceOnUse" xlink:href="#linearGradient5537"/>
		<radialGradient id="radialGradient3103" cx="211.68" cy="126.36" r="14.333" gradientTransform="matrix(1.0847 -.32076 .39651 1.3408 78.51 -72.807)" gradientUnits="userSpaceOnUse" xlink:href="#linearGradient5537"/>
		<linearGradient id="linearGradient1273" x1="232" x2="232" y1="199.5" y2="133" gradientTransform="matrix(.99996 0 0 1.3952 -207.44 -148.49)" gradientUnits="userSpaceOnUse" xlink:href="#linearGradient22783"/>
		<mask id="mask1269" maskUnits="userSpaceOnUse">
			<rect x="-.19975" y="75.725" width="315.41" height="75.255" rx="1.9999" ry="2.7904" fill="url(#linearGradient1273)"/>
		</mask>
		<linearGradient id="linearGradient2831" x1="366.26" x2="366.26" y1="114.81" y2="44.882" gradientUnits="userSpaceOnUse" xlink:href="#linearGradient22783"/>
		<mask id="mask2827" maskUnits="userSpaceOnUse">
			<path d="m359.47 0.6254c-0.24721 0.011197-0.50155 0.045166-0.77957 0.092318-4.2638 0.15271-7.7796 3.6242-8.4702 7.7188-3.4591-1.3258-7.686 1.084-10.532 0.78214-4.6486-3.3028-4.7464 4.7289-4.28 7.7496-3.137 2.6369-5.8833-3.2965-9.5011-3.5927-14.983-6.0087-30.328 10.565-27.562 25.313-0.10123 3.0456 1.9671 6.6647 1.5617 9.1549-19.695 13.625-35.553 29.424-46.869 47.231 1.2206 0.15311 2.1293 0.6604 2.6977 2.6259 4.5763 15.823 3.919 14.178 7.6547-0.33081 0.60751-2.3595 2.1168-2.4535 5.5442-2.3721 2.3502 0.05587 4.3918-0.41606 5.2057 2.272 5.2184 17.236 3.7512 14.364 7.9522-0.13335 0.65642-2.2653 1.6445-2.1882 5.4673-2.1977 4.6002-0.01142 5.4879-0.32443 4.7672 2.5849-2.5837 10.43-5.48 21.859-8.6317 32.009-0.4857 1.5641-1.7705 1.5481-5.2031 1.5822-4.4775 0.0445-4.7781-0.76247-4.9749-1.472-5.5342-19.951-3.7757-15.276-8.901 0.15387-0.56257 1.6937-2.2168 1.4947-5.8673 1.4027-2.5072-0.0632-4.0726 0.55013-4.6698-1.5027-2.409-8.2813-4.4657-16.66-6.5879-25.021-0.64815 1.2383-1.2736 2.4855-1.8797 3.7414 0.35132 1.8842 0.46663 3.8101 0.30004 5.6852-0.14592 1.6425-1.7428 2.4534-4.0312 2.826-0.44065 1.117-0.86105 2.2422-1.2694 3.3722 3.1006-1.0611 3.4698-0.44928 3.3901 4.5262-0.045 2.8093 0.0441 3.8992-2.4669 4.9775-1.3403 0.57553-2.7911 1.0115-4.2979 1.3284-3.3186 12.736-4.669 26.224-3.8594 40.43 2.0556 51.877 36.824 100.05 85.033 118.84 45.682 18.789 101.4 9.5786 138.44-23 36.416-30.549 54.331-81.413 44.969-128.22-0.98808-5.5324-2.4861-11.055-4.3928-16.51-2.2215 6.0805-7.522 9.1399-16.733 9.278-12.357 0.18517-17.089-7.3486-17.938-14.189-0.65067-5.2409-0.32891-19.913-0.30003-30.224 8e-3 -2.9677 2.3503-2.6696 5.5134-2.6875 3.1725-0.01794 5.3058-0.3465 5.3006 3.1362-0.0118 8.8208 0.0239 17.643 0.0641 26.462 0.0223 4.895 2.0227 7.6789 7.1034 7.7188 5.7843 0.0454 7.4822-2.7519 7.6085-7.2572 0.12263-4.3777 0.11712-8.5399 0.11791-12.766-12.828-23.151-32.146-43.245-51.126-54.555 4.7191-11.476 1.9089-26.461-9.5318-32.783-8.1244-5.4275-19.031-2.0424-25.218 4.8134-3.8956-1.5234 1.2134-9.3422-4.6569-9.1241-1.6433 1.509-5.326-0.4447-7.2495-0.25131-0.51735-4.2024-8.2812-7.7852-9.437-2.5926-0.26927 0.17703-3.3906-0.094474-4.4364 1.2181 1.4947-8.2714-5.3518-6.0152-5.9084-1.9694-2.4792-3.4308-8.6895-3.4182-8.6548 1.3437-2.4543 2.5812-5.0093-1.2131-1.8746-2.5926 3.3589-1.5154 3.1134-5.1993-0.59495-5.0313zm22.656 8.4368c2.774 1.6374 0.60889 2.7748 0 0zm50.449 74.09c3.0704 0.05873 4.7735 0.02636 4.7928 2.7054 0.12079 16.759 0.25109 25.538-0.059 41.099-0.0718 3.6049-1.4602 4.0888-5.2852 4.0646-3.3998-0.0215-4.7548-0.32643-4.7928-4.1415-0.15895-15.915-0.52046-26.528-0.14873-41.061 0.0685-2.679 2.3773-2.7266 5.4929-2.667zm-89.684 11.106c5.1008-0.08294 9.0173 1.5451 11.227 4.1364 4.7053 5.5181 3.7749 10.059 3.9056 29.68 0.0197 2.9589-1.6633 3.1436-4.9262 3.1491-3.0874 5e-3 -3.9933-0.18665-4.3056-2.1566-1.4492 1.1584-3.0208 1.8169-6.3417 2.1387-7.5432 0.73086-16.136-1.5599-15.181-13.884 0.75264-9.7171 12.617-11.657 20.536-10.791-1.0724-4.3727-9.2891-3.8842-15.481-0.50005-2.9176 1.5946-2.7206-0.80155-2.8901-3.7235-0.30681-5.2891 0.97099-5.0797 3.108-5.8904 3.8026-1.4425 7.2894-2.1095 10.35-2.1592zm31.832 0.03078c2.391-0.09171 5.0841 0.15475 8.0599 0.7924 5.6507 1.2108 5.2453 2.4787 5.3185 6.5366 0.0536 2.9649-0.36918 5.5107-2.8721 4.0338-4.6368-2.736-13.594-3.7477-14.122-0.24618-0.76111 5.0437 22.414-0.5742 18.12 18.271-1.9575 8.5906-14.791 8.7961-24.192 6.3725-2.8739-0.74084-3.4652-2.1084-3.4876-5.3391-0.0408-5.9116 0.77647-6.5552 6.0007-3.8081 4.7721 2.5093 12.612 2.8549 11.812-1.0745-0.6182-3.0355-14.964-1.217-17.302-9.7011-2.3976-8.7001 2.3047-15.44 12.666-15.838zm-65.594 0.11026c13.534-0.06122 17.82 9.8321 16.91 21.179-1.4891 1.1206 2.9194 1.2336-22.705 1.313 2.018 7.4466 11.803 5.8717 17.094 3.1465 4.2533-2.1907 4.5795 0.0478 4.5005 4.5595-0.0534 3.0536 0.15504 4.1496-3.0824 5.2057-9.7402 3.1774-25.513 3.6769-29.042-10.629-3.2783-13.29 3.6445-24.717 16.325-24.775zm98.037 0c14.371-0.05228 18.54 10.858 17.156 20.687-0.32118 2.2814-2.2245 1.2193-23.28 1.6412 2.4879 7.5111 11.64 6.1217 17.817 3.185 3.7885-1.8009 4.2984-0.73069 4.2774 3.9415-0.0155 3.4557 0.42453 4.8784-4.7569 6.4648-12.598 3.8574-24.796 0.1524-27.462-12.096-2.3633-10.858 3.5281-23.777 16.248-23.823zm-97.172 8.8138c-2.6852 0.0522-5.2329 1.0457-6.6854 3.6696-1.3056 2.3586 0.1722 2.2126 8.1778 1.99 3.6381-0.10121 5.0359 0.45118 4.321-1.9156-0.58108-1.9238-2.992-3.7552-5.8135-3.744zm97.924 0.20515c-3.849 0.0712-5.9653 1.6926-6.2392 4.1287-0.17901 1.5926 1.239 0.99365 8.2753 0.98472 3.333-4e-3 3.5493 0.0744 3.7568-0.66417 0.40633-1.4463-1.4664-4.5293-5.793-4.4492zm47.6 4.7134c3.9768-0.0273 4.7234 1.1133 4.7698 5.2878 0.042 3.7861-0.8865 4.8122-4.2902 4.8134l-11.581 3e-3c-3.862 1e-3 -4.8744-0.86053-4.8518-5.0262 0.0226-4.1657 1.0031-4.973 5.0236-5.0006zm-111.07 6.9751c-1.3177 0.0325-2.7704 0.21829-4.3133 0.59751-3.8185 0.93855-3.6405 7.0011 1.4591 7.1546 3.459 0.10412 6.4152-3.7711 6.3622-7.4316-1.0074-0.23223-2.1904-0.35305-3.5081-0.32055z" fill="url(#linearGradient2831)"/>
		</mask>
	</defs>
	<g>
		<g transform="matrix(.76163 0 0 .76163 -123.05 .045161)" mask="url(#mask2827)">
			<path transform="matrix(0 -.7259 .7259 0 207.43 342.22)" d="m428.63 222.16a183.91 183.91 0 1 1 -367.82 0 183.91 183.91 0 1 1 367.82 0z" fill="#4e9a06" stroke="#4e9a06" stroke-linejoin="round" stroke-width="6.888"/>
			<path transform="matrix(0 -.7259 .7259 0 207.43 342.22)" d="m428.63 222.16a183.91 183.91 0 1 1 -367.82 0 183.91 183.91 0 1 1 367.82 0z" fill="url(#linearGradient3039)"/>
			<path transform="matrix(0 -.7259 .7259 0 207.43 342.22)" d="m428.63 222.16a183.91 183.91 0 1 1 -367.82 0 183.91 183.91 0 1 1 367.82 0z" fill="url(#radialGradient3041)"/>
			<path transform="matrix(0 .52852 .52852 0 251.27 1.6455)" d="m428.63 222.16a183.91 183.91 0 1 1 -367.82 0 183.91 183.91 0 1 1 367.82 0z" fill="url(#radialGradient3043)"/>
			<path transform="matrix(0 -.42393 .56997 0 242.07 320.02)" d="m428.63 222.16a183.91 183.91 0 1 1 -367.82 0 183.91 183.91 0 1 1 367.82 0z" fill="url(#radialGradient3045)"/>
			<g transform="matrix(.7259 0 0 .7259 191.05 3.3096)" fill-rule="evenodd" opacity=".5">
				<path d="m201.58 398.67s-175.99-177.97 32.579-358.78c-235.8 180.15-32.036 357.84-32.579 358.78z" fill="url(#linearGradient3047)"/>
				<path d="m418.06 185.19s-177.97-175.99-358.78 32.58c180.15-235.8 357.84-32.036 358.78-32.58z" fill="url(#linearGradient3049)"/>
				<path d="m66.938 267.02s177.97 175.99 358.78-32.58c-180.15 235.8-357.84 32.036-358.78 32.58z" fill="url(#linearGradient3051)"/>
				<path d="m283.42 47.542s175.99 177.97-32.579 358.78c235.8-180.15 32.036-357.84 32.579-358.78z" fill="url(#linearGradient3053)"/>
				<path d="m92 316s170.42-72.468 308.71-178.23c-161.71 68.234-309.71 178.23-308.71 178.23z" fill="url(#radialGradient3055)"/>
				<path d="m335.47 381.24s-72.468-170.42-178.23-308.71c68.234 161.71 178.23 309.71 178.23 308.71z" fill="url(#radialGradient3057)"/>
			</g>
			<g fill="url(#radialGradient3059)">
				<path transform="matrix(1.3587 0 0 1.3587 157.34 -33.321)" d="m176 148.5a19.5 19.5 0 1 1 -39 0 19.5 19.5 0 1 1 39 0z"/>
				<path transform="matrix(.577 0 0 .577 347.19 13.807)" d="m176 148.5a19.5 19.5 0 1 1 -39 0 19.5 19.5 0 1 1 39 0z"/>
				<path transform="matrix(.35364 0 0 .35364 409.01 60.768)" d="m176 148.5a19.5 19.5 0 1 1 -39 0 19.5 19.5 0 1 1 39 0z"/>
				<path transform="matrix(.7259 0 0 .7259 213.55 -14.112)" d="m176 148.5a19.5 19.5 0 1 1 -39 0 19.5 19.5 0 1 1 39 0z"/>
				<path transform="matrix(.7259 0 0 .7259 331.15 14.924)" d="m176 148.5a19.5 19.5 0 1 1 -39 0 19.5 19.5 0 1 1 39 0z"/>
				<path transform="matrix(.7259 0 0 .7259 297.03 132.52)" d="m176 148.5a19.5 19.5 0 1 1 -39 0 19.5 19.5 0 1 1 39 0z"/>
				<path transform="matrix(.7259 0 0 .7259 176.53 105.66)" d="m176 148.5a19.5 19.5 0 1 1 -39 0 19.5 19.5 0 1 1 39 0z"/>
				<path transform="matrix(.577 0 0 .577 343.56 148.82)" d="m176 148.5a19.5 19.5 0 1 1 -39 0 19.5 19.5 0 1 1 39 0z"/>
				<path transform="matrix(.35364 0 0 .35364 361.82 204.5)" d="m176 148.5a19.5 19.5 0 1 1 -39 0 19.5 19.5 0 1 1 39 0z"/>
				<path transform="matrix(.577 0 0 .577 210 151.73)" d="m176 148.5a19.5 19.5 0 1 1 -39 0 19.5 19.5 0 1 1 39 0z"/>
				<path transform="matrix(.577 0 0 .577 210 16.711)" d="m176 148.5a19.5 19.5 0 1 1 -39 0 19.5 19.5 0 1 1 39 0z"/>
				<path transform="matrix(.35364 0 0 .35364 218.82 171.1)" d="m176 148.5a19.5 19.5 0 1 1 -39 0 19.5 19.5 0 1 1 39 0z"/>
				<path transform="matrix(.35364 0 0 .35364 261.65 23.746)" d="m176 148.5a19.5 19.5 0 1 1 -39 0 19.5 19.5 0 1 1 39 0z"/>
			</g>
			<g fill-rule="evenodd">
				<path d="m359.3 2.693c-2.4793 0.072922-7.438 1.2459-7.438 9.4131-2.0742-4.1484-11.388-0.50427-11.388-0.50427s3.7443 1.315 4.1182 3.0256c2e-3 0.0082-2e-3 0.03384 0 0.04202-1.599 0.62852-3.1918 1.3273-4.7066 2.1011-1.1117-1.3633-1.0026-4.6948-2.0171-6.7236-0.80893 2.4268-0.65076 5.5011-0.29415 7.9423-1.4642 0.84878-2.849 1.7791-4.2023 2.7735-8.1558-7.957-18.374-9.7831-27.567 0-12.078 12.854-2.3988 33.655 7.4801 44.964 0.34857 0.38755 0.69934 0.81344 1.0506 1.2187 0.18034 3.5759 1.2703 7.9229 4.0762 15.128 6.8664 17.632 13.871 18.906 25.928 31.097 14.748 15.146 29.833 14.325 44.586 0 12.057-12.191 19.056-13.465 25.928-31.097 1.3795-3.5393 2.3351-6.3646 2.9836-8.7828 2.106-2.6461 4.2084-5.2815 6.2614-7.5641 9.8788-11.31 19.558-32.11 7.4801-44.964-9.7674-10.395-20.748-7.6973-29.122 1.5548-1.2741-1.0557-2.6368-2.0266-4.0342-2.9416 0.33487-1.7983 0.70171-4.8106 0-7.0178-1.063 2.2292-0.34086 6.6903-3.5299 4.8326-3.189-1.8577 1.807-3.698 1.807-3.698 1e-5 -1e-6 -6.3989-2.5941-7.8162 0.3782 0-7.8023-6.0093-6.7236-6.0093-6.7236 2e-5 -1.5e-6 3.1698 1.889 2.8155 4.1182-0.11839 0.74482-0.72318 1.3652-1.5128 1.6809-1.0436-0.29858-2.1288-0.59798-3.1937-0.84046-0.36883-0.5376-0.58832-1.3058-0.58832-2.3533-1.702-0.13728-2.8113 0.58463-3.4879 1.5548-0.7598-0.12009-1.5035-0.20166-2.2692-0.29416l-0.46225-6.6816-2.0171 6.3875c-0.57663-0.04678-1.1446-0.05276-1.7229-0.08405-0.76126-2.1863-2.4548-4.5274-6.1353-4.2443 0 2.3765-0.9107 3.7192-2.1011 4.3283-0.95062 0.06931-1.9126 0.14067-2.8576 0.25214-1.4115-0.34594-2.6144-1.3147-2.8155-2.5214-0.51854-3.1113 4.1603-5.6731 4.1603-5.6731-2e-5 0-0.56033-0.10835-1.3868-0.084046z" fill="#3465a4" stroke="#3465a4" stroke-linecap="round" stroke-linejoin="round" stroke-width="5"/>
				<path d="m305.81 20.773c-12.078 12.854-2.4041 33.638 7.4747 44.948 10.222 11.366 21.689 30.961 28.558 21.703 20.812-36.048-11.409-92.856-36.033-66.651z" fill="url(#radialGradient3085)"/>
				<path d="m431.57 20.773c12.078 12.854 2.4041 33.638-7.4747 44.948-10.222 11.366-21.689 30.961-28.558 21.703-20.812-36.048 11.409-92.856 36.033-66.651z" fill="url(#radialGradient3087)"/>
			</g>
			<g fill="#fff" fill-rule="evenodd">
				<path d="m359.3 2.6933c-2.4793 0.072922-7.433 1.2398-7.433 9.407-2.0742-4.1484-11.405-0.51178-11.405-0.51178s3.7447 1.3357 4.1186 3.0463c2e-3 0.0082-2e-3 0.01619 0 0.02437-1.599 0.62852-3.1644 1.322-4.6791 2.0959-1.1117-1.3633-1.0327-4.6974-2.0471-6.7262-0.80894 2.4268-0.62469 5.528-0.26808 7.9691-11.228 6.5087-19.451 17.291-20.715 32.461-1.9496 13.221-5.331 14.001 1.5353 31.633 6.8664 17.632 13.873 18.905 25.93 31.097 14.748 15.146 29.845 14.325 44.598 0 12.057-12.191 19.058-13.465 25.93-31.097 6.8725-17.632 3.5033-18.412 1.5597-31.633-0.68476-14.064-7.8228-24.442-17.985-31.097 0.33488-1.7983 0.70169-4.7871-1e-5 -6.9943-1.063 2.2292-0.34466 6.683-3.5337 4.8253-3.189-1.8577 1.779-3.7043 1.779-3.7043 0-2e-6 -6.3812-2.6068-7.7985 0.36556 1e-5 -7.8023-6.0195-6.7019-6.0195-6.7019 0-1.4e-6 3.1813 1.865 2.827 4.0942-0.11839 0.74482-0.74569 1.3658-1.5353 1.6816-1.0436-0.29858-2.1033-0.58612-3.1682-0.82859-0.36885-0.5376-0.60926-1.2921-0.60926-2.3396-1.7021-0.13729-2.784 0.58949-3.4606 1.5597-0.7598-0.12009-1.5251-0.22432-2.2908-0.31681l-0.46303-6.6775-2.0227 6.4094c-0.57665-0.04678-1.152-0.0662-1.7303-0.09748-0.76125-2.1863-2.4365-4.5236-6.117-4.2405 2e-5 2.3765-0.90542 3.7044-2.0958 4.3136-0.95063 0.0693-1.9064 0.1566-2.8513 0.26808-1.4115-0.34594-2.6259-1.3035-2.827-2.5102-0.51854-3.1113 4.143-5.7027 4.143-5.7027 0 0-0.53831-0.097416-1.3647-0.073112z"/>
				<path d="m415.84 67.044 11.119-13.652-3.7464 1.4152 5.7206-7.6028-6.2306 3.4039 8.8897-9.5637-8.7148 5.3925 8.4198-10.627-7.7077 3.8664 7.3051-8.5832-8.0301 5.4202 4.6734-9.212-7.2378 4.93 1.3969-6.7331-4.0687 2.9691 0.60462-6.2429-3.2765 2.4788 0.64474-3.1076-10.044 8.4724s4.9175 5.4217 8.1631 13.91c3.2456 8.4878 2.1201 23.066 2.1201 23.066z"/>
				<path d="m321.54 67.044-11.119-13.652 3.7464 1.4152-5.7206-7.6028 6.2306 3.4039-8.8897-9.5637 8.7148 5.3925-8.4198-10.627 7.7077 3.8664-7.3052-8.5832 8.03 5.4202-4.6734-9.212 7.2378 4.93-1.3969-6.7331 4.0687 2.9691-0.60462-6.2429 3.2765 2.4788-0.64473-3.1076 10.044 8.4724s-4.9175 5.4217-8.1631 13.91c-3.2456 8.4878-2.1201 23.066-2.1201 23.066z"/>
			</g>
			<path d="m328.89 52.773s22.678-3.4783 22.678 19.748c-22.026-4e-6 -0.24168-19.748-22.678-19.748z" fill="#729fcf" fill-rule="evenodd"/>
			<g transform="matrix(.74575 1.2888e-7 -1.2888e-7 .74575 199.62 -63.596)">
				<path transform="matrix(1.396 0 0 1.396 -71.556 -66.826)" d="m193.5 170.56a8.3117 8.3117 0 1 1 -16.623 0 8.3117 8.3117 0 1 1 16.623 0z"/>
				<path transform="matrix(.55042 0 0 .25629 85.038 134.22)" d="m193.5 170.56a8.3117 8.3117 0 1 1 -16.623 0 8.3117 8.3117 0 1 1 16.623 0z" fill="url(#linearGradient3089)"/>
				<path transform="matrix(.86905 0 0 .48914 26.032 83.33)" d="m193.5 170.56a8.3117 8.3117 0 1 1 -16.623 0 8.3117 8.3117 0 1 1 16.623 0z" fill="url(#radialGradient3091)"/>
			</g>
			<path d="m402.91 52.773s-22.678-3.4783-22.678 19.748c22.026 5e-6 0.24167-19.748 22.678-19.748z" fill="#729fcf" fill-rule="evenodd"/>
			<g transform="matrix(-.74575 -1.2888e-7 -1.2888e-7 .74575 532.18 -63.596)">
				<path transform="matrix(1.396 0 0 1.396 -71.556 -66.826)" d="m193.5 170.56a8.3117 8.3117 0 1 1 -16.623 0 8.3117 8.3117 0 1 1 16.623 0z"/>
				<path transform="matrix(.55042 0 0 .25629 85.038 134.22)" d="m193.5 170.56a8.3117 8.3117 0 1 1 -16.623 0 8.3117 8.3117 0 1 1 16.623 0z" fill="url(#linearGradient3089)"/>
				<path transform="matrix(.86905 0 0 .48914 26.032 83.33)" d="m193.5 170.56a8.3117 8.3117 0 1 1 -16.623 0 8.3117 8.3117 0 1 1 16.623 0z" fill="url(#radialGradient3091)"/>
			</g>
			<g fill-rule="evenodd">
				<path d="m317.22 65.642c-1.0544 0.12248-2.0345 1.0829-2.3186 2.536 0.35243 3.3231 1.477 7.4502 3.9368 13.767 6.8049 17.474 13.749 18.736 25.698 30.818 2.2694 2.3307 4.5516 4.2922 6.835 5.869-0.66226-1.3395-0.68461-3.5272-1.6906-4.5648-2.9442 0.64245-1.7743-1.779-0.31398-3.0915 2.4465-3.478-1.1551 0.71305-2.3911 0.79702-0.21852-4.0467 2.3965-7.6282 4.1059-11.134 2.6274-3.6554-2.4338-5.541-5.3618-4.7338-1.8353-0.76633-6.7428 3.005-6.038-0.48304 0.51628-2.7848 0.78771-5.1353 2.4877-7.4872-1.4555 0.23572-5.7574 5.7471-4.8787 1.3042 0.90129-3.7891-3.1844 0.17696-4.0576 1.2801-2.9719 2.8918-1.3066-1.8334-0.31397-3.0915 1.8796-2.4504-0.71743-3.521-2.4877-1.7148-3.999 2.1987 0.56047-2.3196 1.6665-3.3571-1.1973-0.36091-3.141 2.2671-4.8546 2.6084-0.4832-1.6909 2.2633-3.4953 3.0673-5.1444 2.6286-3.3603-2.0101-1.4789-3.333-0.24152-3.0376 1.721-0.24968-1.6243 0.84531-2.3186 2.4742-2.7213-1.9941-0.47813-2.9224 0.31397-4.4132 2.9382-3.0064-3.0244-1.4008-5.072 0.98485-4.178-1.6004 2.1222-3.3089 0.60381-2.6756-1.7353 1.0839-4.3483-0.41057-5.5308-0.61741-1.4773-1.6228-2.041-2.5601-1.9322zm98.662 6e-6c-0.81003 0.07455-1.6204 0.66596-2.1496 1.9322-1.4945 1.1826 2.265 3.7956-0.41059 5.5308-1.7084 1.5184-4.2937-4.7818-3.3088-0.60381 1.6056 2.0476 3.0124 8.0102-1.4008 5.072-0.92825-0.79209-5.3966-3.0352-2.9224-0.31397 1.095 0.69434 3.8588 4.0396 0.82117 2.3186-1.3229-1.2374-5.9374-3.1188-3.3088 0.24152 0.804 1.6491 3.5264 3.4535 3.0432 5.1444-1.7135-0.34131-3.6331-2.9693-4.8304-2.6084 1.106 1.0376 5.6414 5.5558 1.6424 3.3571-1.7703-1.8062-4.3431-0.73556-2.4635 1.7148 0.99265 1.2581 2.6579 5.9832-0.31399 3.0915-0.87314-1.1031-4.9588-5.0692-4.0576-1.2801 0.87874 4.4428-3.4473-1.0685-4.9029-1.3042 1.7 2.3519 1.9714 4.7024 2.4877 7.4872 0.70473 3.488-4.1786-0.28329-6.0139 0.48304-2.928-0.80722-7.9891 1.0784-5.3618 4.7338 1.7093 3.5059 4.3002 7.0874 4.0817 11.134-1.2359-0.084-4.8134-4.275-2.3669-0.79701 1.4604 1.3124 2.6302 3.7339-0.31398 3.0915-0.87667 0.90412-1.0097 2.6796-1.4733 4.0093 2.1288-1.4868 4.2596-3.2584 6.3762-5.3135 11.949-12.082 18.887-13.344 25.698-30.818 2.6114-6.6999 3.7304-10.945 4.0092-14.371-0.46483-1.2801-1.5154-2.0283-2.5601-1.9322zm-61.902 53.956c-0.33331 0.0994-0.60834 0.13771-0.86948 0.14491 0.58124 0.35295 1.1571 0.68497 1.739 0.99024-0.26473-0.46581-0.54192-0.88404-0.86947-1.1352zm25.529 0c-0.203 0.15563-0.40544 0.35182-0.57966 0.6038 0.31451-0.17332 0.62761-0.34536 0.94193-0.53134-0.11963-0.0242-0.23097-0.0333-0.36227-0.0725zm-19.612 3.0915c-0.0609 1.5e-4 -0.12941 0.0382-0.19323 0.0483 0.3249 0.0972 0.64109 0.18294 0.9661 0.26568-0.23317-0.18414-0.48552-0.31467-0.77287-0.31398z" fill="url(#radialGradient3097)"/>
				<path d="m358.82 103.91c-4.6476 1.5348-5.5775 2.4671-3.7197 6.1394 1.8578 3.6723 5.5734 8.5499 11.151 8.5499s9.2994-4.8776 11.159-8.5499c1.8599-3.6723 2.5334-3.9748-3.7198-6.1394-6.2532-2.1645-10.223-1.5348-14.871 1e-5z"/>
				<path d="m359.79 104.76c-4.0574 1.34-4.8693 2.1538-3.2474 5.3598 1.6219 3.206 9.7349-6.6496 9.7349 7.4642 2e-5 -14.07 8.1185-4.2582 9.7422-7.4642 1.6237-3.206 2.2117-3.4701-3.2474-5.3598-5.4592-1.8897-8.9249-1.3399-12.982 0z" fill="url(#radialGradient3099)"/>
				<path d="m364.83 47.878s6.2226 1.0371 6.7412 9.8525c5.1855-8.8154 0-14.519 0-14.519s8.8154 1.5557 8.2968 9.3339c4.667-8.2968-0.51855-14.001-0.51855-14.001s7.7783-1.5557 9.8525 3.1113c-2.0742-7.2597-8.8154-10.371-8.8154-10.371s14.001-0.51856 13.482 6.7412c2.0742-12.445-8.2968-12.445-8.2968-12.445s6.2226-3.1113 11.927 2.0742c-4.1484-9.3339-11.208-9.3811-11.208-9.3811 7.6344 1.1159 11.673 5.5163 13.801 15.604-1.5557-4.1484-7.9316-5.763-7.9316-5.763s6.1049 2.0978 2.475 14.543c-1.0371-6.2226-8.0258-7.2244-8.0258-7.2244s6.4232 5.0914 2.5928 12.964c-0.51857-5.7041-5.1855-5.7041-5.1855-5.7041s3.1113 9.8525-5.7041 16.594c0.51856-5.1855-2.5927-7.7783-2.5927-7.7783s2.0742 4.667-6.7412 10.371c2.0742-5.7041-4.1484-14.001-4.1484-14.001z" fill="url(#radialGradient3101)"/>
				<path d="m354.26 16.407c-2.2239-0.34745-8.6285 0.01809-12.699 2.764 5.2419-4.021 14.018 1.3403 14.018 1.3403s-10.325 0.43714-12.827 6.0362c9.7703-6.0565 15.488 2.0259 15.488 2.0259s-8.2605-2.2936-11.874 3.5241c4.2097-3.2266 12.787 0.98309 12.787 0.98309s-4.3682 1.3403-5.6787 7.5951c3.0578-2.6806 8.2996-3.1274 8.2996-3.1274-3.9401 1.6162-5.7821 2.8424-9.9102 7.2181 1.5557-7.2597 4.3581-9.9275 4.3581-9.9275s-10.062-3.0363-13.173 1.6307c4.667-9.3339 10.731-8.4138 10.731-8.4138s-10.212-2.4758-13.324 2.7097c2.275-8.1468 10.422-9.7267 10.422-9.7267s-4.4419-2.8863-11.459-0.12578c7.7783-7.7783 17.065-4.1586 14.841-4.5061z" fill="url(#radialGradient3103)"/>
			</g>
		</g>
		<g font-family="'DejaVu Sans'" font-size="42.667px" letter-spacing="0px" text-anchor="middle" word-spacing="0px">
			<text x="158.25546" y="97.824837" display="none" fill="#2715d2" text-align="center" style="line-height:1.25" xml:space="preserve"><tspan x="158.25545" y="97.824837">iceweasel-UXP</tspan></text>
			<text x="33.589626" y="97.824837" fill="#2715d2" text-align="center" style="line-height:1.25" xml:space="preserve"><tspan x="33.589626" y="97.824837">ice</tspan></text>
			<text x="138.21347" y="97.824837" fill="#73a0d0" text-align="center" style="line-height:1.25" xml:space="preserve"><tspan x="138.21347" y="97.824837">weasel</tspan></text>
			<text x="262.87878" y="97.824837" fill="#2715d2" text-align="center" style="line-height:1.25" xml:space="preserve"><tspan x="262.87878" y="97.824837">-UXP</tspan></text>
		</g>
		<g transform="matrix(.060529 0 0 .060529 .98068 57.247)">
			<path transform="matrix(0 -.52521 .52521 0 11.422 267.42)" d="m428.63 222.16a183.91 183.91 0 1 1 -367.82 0 183.91 183.91 0 1 1 367.82 0z" fill="#4e9a06" stroke="#4e9a06" stroke-linejoin="round" stroke-width="7.6159"/>
			<path transform="matrix(0 -.52521 .52521 0 11.422 267.42)" d="m428.63 222.16a183.91 183.91 0 1 1 -367.82 0 183.91 183.91 0 1 1 367.82 0z" fill="url(#linearGradient3039)"/>
			<path transform="matrix(0 -.52521 .52521 0 11.422 267.42)" d="m428.63 222.16a183.91 183.91 0 1 1 -367.82 0 183.91 183.91 0 1 1 367.82 0z" fill="url(#radialGradient3041)"/>
			<path transform="matrix(0 .3824 .3824 0 43.148 21.005)" d="m428.63 222.16a183.91 183.91 0 1 1 -367.82 0 183.91 183.91 0 1 1 367.82 0z" fill="url(#radialGradient3043)"/>
			<path transform="matrix(0 -.30672 .41239 0 36.487 251.36)" d="m428.63 222.16a183.91 183.91 0 1 1 -367.82 0 183.91 183.91 0 1 1 367.82 0z" fill="url(#radialGradient3045)"/>
			<g transform="matrix(.52521 0 0 .52521 -.4267 22.209)" fill-rule="evenodd" opacity=".5">
				<path d="m201.58 398.67s-175.99-177.97 32.579-358.78c-235.8 180.15-32.036 357.84-32.579 358.78z" fill="url(#linearGradient3047)"/>
				<path d="m418.06 185.19s-177.97-175.99-358.78 32.58c180.15-235.8 357.84-32.036 358.78-32.58z" fill="url(#linearGradient3049)"/>
				<path d="m66.938 267.02s177.97 175.99 358.78-32.58c-180.15 235.8-357.84 32.036-358.78 32.58z" fill="url(#linearGradient3051)"/>
				<path d="m283.42 47.542s175.99 177.97-32.579 358.78c235.8-180.15 32.036-357.84 32.579-358.78z" fill="url(#linearGradient3053)"/>
				<path d="m92 316s170.42-72.468 308.71-178.23c-161.71 68.234-309.71 178.23-308.71 178.23z" fill="url(#radialGradient3055)"/>
				<path d="m335.47 381.24s-72.468-170.42-178.23-308.71c68.234 161.71 178.23 309.71 178.23 308.71z" fill="url(#radialGradient3057)"/>
			</g>
			<g fill="url(#radialGradient3059)">
				<path transform="matrix(.98309 0 0 .98309 -24.815 -4.2943)" d="m176 148.5a19.5 19.5 0 1 1 -39 0 19.5 19.5 0 1 1 39 0z"/>
				<path transform="matrix(.41748 0 0 .41748 112.55 29.804)" d="m176 148.5a19.5 19.5 0 1 1 -39 0 19.5 19.5 0 1 1 39 0z"/>
				<path transform="matrix(.25587 0 0 .25587 157.27 63.782)" d="m176 148.5a19.5 19.5 0 1 1 -39 0 19.5 19.5 0 1 1 39 0z"/>
				<path transform="matrix(.52521 0 0 .52521 15.855 9.6037)" d="m176 148.5a19.5 19.5 0 1 1 -39 0 19.5 19.5 0 1 1 39 0z"/>
				<path transform="matrix(.52521 0 0 .52521 100.94 30.612)" d="m176 148.5a19.5 19.5 0 1 1 -39 0 19.5 19.5 0 1 1 39 0z"/>
				<path transform="matrix(.52521 0 0 .52521 76.255 115.7)" d="m176 148.5a19.5 19.5 0 1 1 -39 0 19.5 19.5 0 1 1 39 0z"/>
				<path transform="matrix(.52521 0 0 .52521 -10.931 96.264)" d="m176 148.5a19.5 19.5 0 1 1 -39 0 19.5 19.5 0 1 1 39 0z"/>
				<path transform="matrix(.41748 0 0 .41748 109.92 127.49)" d="m176 148.5a19.5 19.5 0 1 1 -39 0 19.5 19.5 0 1 1 39 0z"/>
				<path transform="matrix(.25587 0 0 .25587 123.13 167.77)" d="m176 148.5a19.5 19.5 0 1 1 -39 0 19.5 19.5 0 1 1 39 0z"/>
				<path transform="matrix(.41748 0 0 .41748 13.283 129.59)" d="m176 148.5a19.5 19.5 0 1 1 -39 0 19.5 19.5 0 1 1 39 0z"/>
				<path transform="matrix(.41748 0 0 .41748 13.283 31.905)" d="m176 148.5a19.5 19.5 0 1 1 -39 0 19.5 19.5 0 1 1 39 0z"/>
				<path transform="matrix(.25587 0 0 .25587 19.666 143.61)" d="m176 148.5a19.5 19.5 0 1 1 -39 0 19.5 19.5 0 1 1 39 0z"/>
				<path transform="matrix(.25587 0 0 .25587 50.654 36.996)" d="m176 148.5a19.5 19.5 0 1 1 -39 0 19.5 19.5 0 1 1 39 0z"/>
			</g>
		</g>
		<g transform="matrix(1 0 0 .71677 0 36.065)" mask="url(#mask1269)">
			<g font-family="'DejaVu Sans'" font-size="42.676px" letter-spacing="0px" stroke-width="1.0002" text-anchor="middle" word-spacing="0px">
				<text transform="scale(.99974 -1.0003)" x="158.30386" y="-89.206703" display="none" fill="#2715d2" text-align="center" style="line-height:1.25" xml:space="preserve"><tspan x="158.30386" y="-89.206703" stroke-width="1.0002">iceweasel-UXP</tspan></text>
				<text transform="scale(.99974 -1.0003)" x="33.610344" y="-89.206703" fill="#2715d2" text-align="center" style="line-height:1.25" xml:space="preserve"><tspan x="33.610344" y="-89.206703" stroke-width="1.0002">ice</tspan></text>
				<text transform="scale(.99974 -1.0003)" x="138.25743" y="-89.206703" fill="#73a0d0" text-align="center" style="line-height:1.25" xml:space="preserve"><tspan x="138.25743" y="-89.206703" stroke-width="1.0002">weasel</tspan></text>
				<text transform="scale(.99974 -1.0003)" x="262.95044" y="-89.206703" fill="#2715d2" text-align="center" style="line-height:1.25" xml:space="preserve"><tspan x="262.95044" y="-89.206703" stroke-width="1.0002">-UXP</tspan></text>
			</g>
			<g transform="matrix(.060526 0 0 -.060558 .99389 129.83)">
				<path transform="matrix(0 -.52521 .52521 0 11.422 267.42)" d="m428.63 222.16a183.91 183.91 0 1 1 -367.82 0 183.91 183.91 0 1 1 367.82 0z" fill="#4e9a06" stroke="#4e9a06" stroke-linejoin="round" stroke-width="7.6159"/>
				<path transform="matrix(0 -.52521 .52521 0 11.422 267.42)" d="m428.63 222.16a183.91 183.91 0 1 1 -367.82 0 183.91 183.91 0 1 1 367.82 0z" fill="url(#linearGradient3039)"/>
				<path transform="matrix(0 -.52521 .52521 0 11.422 267.42)" d="m428.63 222.16a183.91 183.91 0 1 1 -367.82 0 183.91 183.91 0 1 1 367.82 0z" fill="url(#radialGradient3041)"/>
				<path transform="matrix(0 .3824 .3824 0 43.148 21.005)" d="m428.63 222.16a183.91 183.91 0 1 1 -367.82 0 183.91 183.91 0 1 1 367.82 0z" fill="url(#radialGradient3043)"/>
				<path transform="matrix(0 -.30672 .41239 0 36.487 251.36)" d="m428.63 222.16a183.91 183.91 0 1 1 -367.82 0 183.91 183.91 0 1 1 367.82 0z" fill="url(#radialGradient3045)"/>
				<g transform="matrix(.52521 0 0 .52521 -.4267 22.209)" fill-rule="evenodd" opacity=".5">
					<path d="m201.58 398.67s-175.99-177.97 32.579-358.78c-235.8 180.15-32.036 357.84-32.579 358.78z" fill="url(#linearGradient3047)"/>
					<path d="m418.06 185.19s-177.97-175.99-358.78 32.58c180.15-235.8 357.84-32.036 358.78-32.58z" fill="url(#linearGradient3049)"/>
					<path d="m66.938 267.02s177.97 175.99 358.78-32.58c-180.15 235.8-357.84 32.036-358.78 32.58z" fill="url(#linearGradient3051)"/>
					<path d="m283.42 47.542s175.99 177.97-32.579 358.78c235.8-180.15 32.036-357.84 32.579-358.78z" fill="url(#linearGradient3053)"/>
					<path d="m92 316s170.42-72.468 308.71-178.23c-161.71 68.234-309.71 178.23-308.71 178.23z" fill="url(#radialGradient3055)"/>
					<path d="m335.47 381.24s-72.468-170.42-178.23-308.71c68.234 161.71 178.23 309.71 178.23 308.71z" fill="url(#radialGradient3057)"/>
				</g>
				<g fill="url(#radialGradient3059)">
					<path transform="matrix(.98309 0 0 .98309 -24.815 -4.2943)" d="m176 148.5a19.5 19.5 0 1 1 -39 0 19.5 19.5 0 1 1 39 0z"/>
					<path transform="matrix(.41748 0 0 .41748 112.55 29.804)" d="m176 148.5a19.5 19.5 0 1 1 -39 0 19.5 19.5 0 1 1 39 0z"/>
					<path transform="matrix(.25587 0 0 .25587 157.27 63.782)" d="m176 148.5a19.5 19.5 0 1 1 -39 0 19.5 19.5 0 1 1 39 0z"/>
					<path transform="matrix(.52521 0 0 .52521 15.855 9.6037)" d="m176 148.5a19.5 19.5 0 1 1 -39 0 19.5 19.5 0 1 1 39 0z"/>
					<path transform="matrix(.52521 0 0 .52521 100.94 30.612)" d="m176 148.5a19.5 19.5 0 1 1 -39 0 19.5 19.5 0 1 1 39 0z"/>
					<path transform="matrix(.52521 0 0 .52521 76.255 115.7)" d="m176 148.5a19.5 19.5 0 1 1 -39 0 19.5 19.5 0 1 1 39 0z"/>
					<path transform="matrix(.52521 0 0 .52521 -10.931 96.264)" d="m176 148.5a19.5 19.5 0 1 1 -39 0 19.5 19.5 0 1 1 39 0z"/>
					<path transform="matrix(.41748 0 0 .41748 109.92 127.49)" d="m176 148.5a19.5 19.5 0 1 1 -39 0 19.5 19.5 0 1 1 39 0z"/>
					<path transform="matrix(.25587 0 0 .25587 123.13 167.77)" d="m176 148.5a19.5 19.5 0 1 1 -39 0 19.5 19.5 0 1 1 39 0z"/>
					<path transform="matrix(.41748 0 0 .41748 13.283 129.59)" d="m176 148.5a19.5 19.5 0 1 1 -39 0 19.5 19.5 0 1 1 39 0z"/>
					<path transform="matrix(.41748 0 0 .41748 13.283 31.905)" d="m176 148.5a19.5 19.5 0 1 1 -39 0 19.5 19.5 0 1 1 39 0z"/>
					<path transform="matrix(.25587 0 0 .25587 19.666 143.61)" d="m176 148.5a19.5 19.5 0 1 1 -39 0 19.5 19.5 0 1 1 39 0z"/>
					<path transform="matrix(.25587 0 0 .25587 50.654 36.996)" d="m176 148.5a19.5 19.5 0 1 1 -39 0 19.5 19.5 0 1 1 39 0z"/>
				</g>
			</g>
		</g>
	</g>
</svg>
